<?xml version="1.0" standalone="no"?>
<!DOCTYPE svg PUBLIC "-//W3C//DTD SVG 20010904//EN"
 "http://www.w3.org/TR/2001/REC-SVG-20010904/DTD/svg10.dtd">
<svg version="1.0" xmlns="http://www.w3.org/2000/svg"
 width="256.000000pt" height="256.000000pt" viewBox="0 0 256.000000 256.000000"
 preserveAspectRatio="xMidYMid meet">
<metadata>
Created by potrace 1.11, written by Peter Selinger 2001-2013
</metadata>
<g transform="translate(0.000000,256.000000) scale(0.100000,-0.100000)"
fill="#000000" stroke="none">
<path d="M32 2340 c-17 -8 -22 -17 -22 -48 0 -23 6 -45 15 -52 8 -7 15 -18 15
-25 0 -7 9 -33 21 -59 20 -46 20 -65 26 -963 6 -910 6 -916 27 -940 40 -45 86
-47 986 -44 723 3 841 5 880 19 29 9 117 19 243 26 l199 11 24 28 c24 28 24
29 25 270 0 133 2 541 5 907 l3 665 27 53 c15 29 31 55 35 58 5 3 9 23 9 44 0
29 -5 42 -19 50 -25 13 -2466 13 -2499 0z m2468 -55 c0 -8 -10 -17 -22 -19
-13 -3 -32 -7 -43 -9 -14 -3 -12 -5 8 -6 28 -1 35 -19 15 -39 -7 -7 -39 -13
-72 -13 -34 -1 -47 -4 -31 -6 73 -9 75 -10 75 -58 l0 -45 -130 0 -130 0 0
-895 c0 -590 -3 -895 -10 -895 -7 0 -10 306 -10 897 l0 896 -677 -7 c-373 -3
-780 -6 -905 -7 l-228 0 0 -890 0 -889 863 -1 c474 -1 842 -5 817 -9 -25 -5
-58 -14 -75 -21 -24 -11 -192 -14 -810 -17 -740 -3 -859 0 -962 25 -49 12 -19
23 62 23 l85 0 0 889 0 890 -95 -4 -95 -5 0 38 c0 24 -13 65 -35 107 -19 38
-32 72 -29 77 3 4 552 8 1220 8 1065 0 1214 -2 1214 -15z m-1849 -266 c63 -14
102 -48 97 -86 -2 -14 -11 -31 -20 -37 -14 -8 -24 -3 -56 32 -32 35 -45 42
-76 42 -26 0 -44 -7 -61 -25 -49 -48 -22 -78 84 -98 83 -16 118 -38 144 -90
38 -75 -14 -179 -101 -205 -59 -18 -151 -14 -198 7 -90 41 -116 141 -36 141
17 0 27 -9 38 -36 31 -75 173 -87 191 -16 9 37 -22 60 -104 75 -104 20 -147
54 -159 129 -12 71 48 147 132 167 54 13 66 13 125 0z m781 -85 c26 -50 67
-142 91 -204 23 -63 48 -115 53 -117 14 -5 24 90 24 227 0 105 -1 108 -26 124
-31 21 -28 48 6 57 31 9 133 11 153 3 9 -3 34 -53 58 -111 l42 -105 41 95 c58
131 54 128 145 125 65 -3 76 -6 79 -22 3 -11 -5 -26 -18 -36 -22 -17 -22 -19
-15 -178 6 -138 10 -163 26 -178 14 -13 16 -21 8 -35 -8 -16 -22 -19 -100 -19
-71 0 -91 3 -96 15 -3 9 2 24 11 34 23 25 28 65 19 155 l-8 80 -40 -97 c-22
-54 -48 -107 -59 -118 l-18 -20 -24 22 c-13 12 -26 31 -30 41 -3 10 -23 56
-45 101 l-40 82 4 -108 c4 -106 5 -109 33 -132 24 -20 27 -25 15 -39 -11 -13
-37 -16 -161 -16 -114 0 -150 3 -159 14 -9 11 -8 18 5 30 15 15 15 21 2 54
l-14 37 -83 0 -84 0 -13 -37 c-11 -33 -11 -39 3 -46 8 -5 13 -18 11 -28 -3
-16 -14 -19 -66 -22 -72 -3 -89 13 -55 51 11 12 32 60 48 107 30 95 107 265
132 293 12 13 28 17 57 15 38 -3 40 -5 88 -94z m-357 75 c58 -16 105 -67 105
-116 0 -89 -68 -143 -212 -168 -38 -6 -38 -6 -38 -52 0 -35 6 -53 23 -71 22
-23 22 -24 2 -38 -30 -22 -174 -15 -189 8 -9 14 -6 21 12 33 21 16 22 22 22
176 0 147 -2 161 -20 176 -22 20 -26 49 -7 56 24 10 263 7 302 -4z m-885 -14
c-16 -19 -10 -19 26 0 40 20 59 19 61 -5 2 -22 -32 -29 -40 -7 -4 8 -8 8 -14
2 -12 -15 -34 -17 -49 -4 -11 9 -14 8 -14 -4 0 -10 -6 -14 -15 -11 -27 11 -16
33 18 37 17 2 34 5 36 5 2 1 -2 -5 -9 -13z m1938 -47 c26 -26 2 -75 -31 -62
-22 8 -31 42 -17 59 15 18 32 19 48 3z m-1928 -4 c0 -3 -7 -12 -15 -21 -20
-19 -32 -9 -15 12 12 15 30 20 30 9z m83 -14 c3 -11 1 -20 -4 -20 -5 0 -9 6
-9 13 0 8 -3 8 -9 -2 -9 -15 -41 -8 -41 8 0 5 10 12 23 14 12 2 25 5 28 6 4 0
9 -8 12 -19z m-133 -5 c0 -8 -4 -15 -8 -15 -5 0 -9 7 -9 15 0 8 4 15 9 15 4 0
8 -7 8 -15z m2221 -34 c16 -16 29 -38 28 -48 0 -14 -2 -14 -6 -3 -11 31 -47
60 -74 60 -38 0 -86 -44 -99 -88 -16 -58 -15 -59 55 -58 87 2 118 -12 35 -15
-36 -1 -71 -2 -77 -2 -23 1 -14 -25 21 -61 47 -51 99 -46 130 12 11 20 15 22
16 9 0 -10 -11 -29 -25 -42 -33 -33 -84 -33 -123 0 -83 70 -65 207 33 251 43
19 53 17 86 -15z m-2105 -11 c21 0 23 -3 14 -19 -6 -13 -17 -17 -30 -14 -11 3
-18 9 -15 13 3 5 1 11 -4 14 -5 4 -12 -2 -14 -11 -3 -13 -5 -12 -6 6 -1 17 3
22 15 17 9 -3 27 -6 40 -6z m2047 -10 c3 -11 1 -23 -4 -26 -5 -3 -9 6 -9 20 0
31 6 34 13 6z m30 0 c3 -11 1 -20 -4 -20 -5 0 -9 9 -9 20 0 11 2 20 4 20 2 0
6 -9 9 -20z m-2163 -10 c-11 -20 -30 -28 -30 -12 0 11 22 32 32 32 5 0 4 -9
-2 -20z m10 -55 c0 -8 -4 -17 -10 -20 -6 -4 -10 5 -10 20 0 15 4 24 10 20 6
-3 10 -12 10 -20z m42 8 c-6 -3 -10 -9 -7 -13 3 -5 0 -12 -6 -16 -8 -4 -9 -3
-5 4 4 7 1 12 -6 12 -8 1 -6 6 6 15 11 8 22 12 25 9 3 -4 0 -9 -7 -11z m51
-12 c-3 -13 -11 -17 -24 -14 -24 7 -24 19 -2 32 23 12 32 6 26 -18z m2041 21
c3 -5 -10 -9 -29 -10 -19 -1 -35 3 -35 8 0 12 57 13 64 2z m46 -2 c0 -5 -4
-10 -9 -10 -6 0 -13 5 -16 10 -3 6 1 10 9 10 9 0 16 -4 16 -10z m37 -22 c-3
-8 -6 -5 -6 6 -1 11 2 17 5 13 3 -3 4 -12 1 -19z m-137 -18 c0 -5 -9 -10 -20
-10 -11 0 -20 5 -20 10 0 6 9 10 20 10 11 0 20 -4 20 -10z m86 2 c-5 -8 -66
-4 -66 4 0 2 16 4 36 4 19 0 33 -4 30 -8z m-2105 -24 c22 0 29 -4 29 -19 0
-15 -7 -19 -32 -18 -18 0 -27 3 -20 6 6 2 12 9 12 14 0 6 -8 5 -20 -1 -17 -9
-20 -8 -20 10 0 13 4 19 11 14 7 -4 25 -7 40 -6z m2154 -7 c-3 -6 -11 -11 -16
-11 -5 0 -4 6 3 14 14 16 24 13 13 -3z m-105 -42 c0 -5 -13 -9 -30 -9 -16 0
-30 4 -30 8 0 5 14 9 30 10 17 0 30 -4 30 -9z m35 1 c3 -5 1 -10 -4 -10 -6 0
-11 5 -11 10 0 6 2 10 4 10 3 0 8 -4 11 -10z m45 0 c0 -5 -8 -10 -17 -10 -15
0 -16 2 -3 10 19 12 20 12 20 0z m-2160 -10 c0 -5 -5 -10 -11 -10 -5 0 -7 5
-4 10 3 6 8 10 11 10 2 0 4 -4 4 -10z m-40 -8 c0 -7 -29 -32 -37 -32 -5 0 -9
8 -9 18 0 11 8 17 23 17 13 0 23 -1 23 -3z m104 -15 c-6 -17 -44 -40 -44 -27
0 5 -7 10 -15 10 -8 0 -15 5 -15 11 0 5 5 7 10 4 6 -3 10 -1 10 4 0 6 13 11
30 11 20 0 28 -4 24 -13z m-64 -72 c0 -5 -5 -3 -10 5 -5 8 -10 20 -10 25 0 6
5 3 10 -5 5 -8 10 -19 10 -25z m63 4 c-6 -23 -23 -25 -23 -3 0 14 -3 14 -16 4
-12 -11 -15 -11 -12 1 3 16 28 28 44 22 7 -2 10 -13 7 -24z m-93 9 c0 -5 -4
-6 -10 -3 -5 3 -10 1 -10 -4 0 -6 -7 -11 -15 -11 -8 0 -15 6 -15 14 0 8 10 14
25 14 14 0 25 -5 25 -10z m1758 -92 c22 -8 43 -12 46 -8 4 3 13 -3 21 -14 13
-16 14 -16 9 -1 -4 12 -1 17 11 17 9 0 13 -4 10 -10 -3 -5 -1 -10 4 -10 6 0
12 10 12 23 1 16 3 17 6 5 3 -11 10 -15 21 -11 15 6 15 5 3 -10 -9 -11 -10
-17 -2 -17 6 0 11 -4 11 -8 0 -4 -24 -7 -52 -6 -29 1 -77 3 -105 3 -49 1 -53
3 -53 24 0 20 7 37 15 37 2 0 21 -6 43 -14z m-718 -88 c0 -7 -7 -80 -15 -163
-12 -135 -16 -151 -36 -165 -12 -8 -35 -27 -51 -43 -29 -29 -30 -30 -111 -23
-45 4 -116 10 -157 13 -41 3 -80 8 -87 12 -9 5 -3 25 20 72 58 119 135 199
243 254 88 45 194 68 194 43z m330 -61 c131 -79 230 -223 253 -370 5 -34 4
-37 -16 -33 -12 3 -58 7 -102 11 -186 14 -210 17 -219 34 -5 9 -27 34 -48 55
l-39 39 11 116 c6 64 13 137 16 163 l6 47 51 -20 c29 -11 68 -30 87 -42z
m-610 -517 c90 -8 117 -14 125 -27 6 -9 29 -38 52 -63 l42 -46 -9 -90 c-4 -49
-11 -120 -15 -159 -4 -38 -8 -72 -10 -73 -8 -8 -83 22 -135 54 -133 80 -231
230 -254 387 l-5 39 47 -6 c26 -3 99 -11 162 -16z m703 -62 c108 -8 147 -15
147 -25 0 -23 -33 -97 -65 -148 -80 -125 -221 -218 -366 -241 l-42 -7 6 74 c4
41 10 114 13 162 l7 88 44 30 c24 17 51 41 59 55 19 28 8 27 197 12z"/>
<path d="M233 2193 c9 -2 23 -2 30 0 6 3 -1 5 -18 5 -16 0 -22 -2 -12 -5z"/>
<path d="M2288 2193 c6 -2 18 -2 25 0 6 3 1 5 -13 5 -14 0 -19 -2 -12 -5z"/>
<path d="M1276 1839 c-14 -33 -26 -62 -26 -65 0 -2 25 -4 55 -4 30 0 55 4 55
10 0 12 -48 120 -53 120 -2 0 -16 -27 -31 -61z"/>
<path d="M938 1954 c-12 -12 -10 -164 2 -164 24 0 79 30 94 51 21 30 20 61 -1
88 -18 22 -82 39 -95 25z"/>
<path d="M2112 1914 c-7 -8 -8 -14 -3 -14 10 0 25 19 20 25 -2 1 -10 -3 -17
-11z"/>
<path d="M240 1669 c0 -5 5 -7 10 -4 6 3 10 8 10 11 0 2 -4 4 -10 4 -5 0 -10
-5 -10 -11z"/>
<path d="M1905 1509 c-10 -15 3 -25 16 -12 7 7 7 13 1 17 -6 3 -14 1 -17 -5z"/>
</g>
</svg>
